<svg xmlns="http://www.w3.org/2000/svg" width="320" height="100" viewBox="0 0 320 100" shape-rendering="crispEdges"><path fill="#a56754" fill-opacity=".17" d="M0 84h40V72h28v-8h28v12h32v8h64V72h40v-8h28v8h36v12h24v16H0Z"/><path fill="#bb7456" fill-opacity=".18" d="M0 96h72v-8h48v4h56v-8h56v8h88v8H0Z"/><g fill="#cf8157" fill-opacity=".4"><path d="M24 66h4v6h-4ZM84 43h3v5h-3ZM176 59h4v6h-4ZM271 37h3v5h-3Z"/></g><g fill="#f9d097" fill-opacity=".65"><path d="M47 86h20v3H47ZM143 91h28v3h-28ZM242 83h20v3h-20Z"/></g></svg>